HIERARCHY
ROOT root
{
	OFFSET 0.00 0.00 0.00
	CHANNELS 6 Xposition Yposition Zposition Zrotation Xrotation Yrotation
	JOINT lowerback
	{
		OFFSET 0 0 0
		CHANNELS 6 Xposition Yposition Zposition Zrotation Xrotation Yrotation
		JOINT upperback
		{
			OFFSET -0.214371 12.3768 -1.12219
			CHANNELS 6 Xposition Yposition Zposition Zrotation Xrotation Yrotation
			JOINT thorax
			{
				OFFSET -0.00137213 12.3873 0.296195
				CHANNELS 6 Xposition Yposition Zposition Zrotation Xrotation Yrotation
				JOINT lowerneck
				{
					OFFSET 0.0883157 12.5016 0.82912
					CHANNELS 6 Xposition Yposition Zposition Zrotation Xrotation Yrotation
					JOINT upperneck
					{
						OFFSET -1 10.1794 0.943522
						CHANNELS 6 Xposition Yposition Zposition Zrotation Xrotation Yrotation
						JOINT head
						{
							OFFSET 0.667525 10.2797 -1.57149
							CHANNELS 6 Xposition Yposition Zposition Zrotation Xrotation Yrotation
							End Site
							{
								OFFSET 0 0 0
							}
						}
					}
				}
				JOINT lclavicle
				{
					OFFSET 0.0883157 12.5016 0.82912
					CHANNELS 6 Xposition Yposition Zposition Zrotation Xrotation Yrotation
					JOINT lhumerus
					{
						OFFSET 20.61 4.45006 1.43784
						CHANNELS 6 Xposition Yposition Zposition Zrotation Xrotation Yrotation
						JOINT lradius
						{
							OFFSET 0 -30.3438 0
							CHANNELS 6 Xposition Yposition Zposition Zrotation Xrotation Yrotation
							JOINT lwrist
							{
								OFFSET 0 -18.964 0
								CHANNELS 6 Xposition Yposition Zposition Zrotation Xrotation Yrotation
								JOINT lhand
								{
									OFFSET 0 -9.48199 0
									CHANNELS 6 Xposition Yposition Zposition Zrotation Xrotation Yrotation
									JOINT lfingers
									{
										OFFSET 0 -3.17138 0
										CHANNELS 6 Xposition Yposition Zposition Zrotation Xrotation Yrotation
										End Site
										{
											OFFSET 0 -2.55685 0
										}
									}
								}
								JOINT lthumb
								{
									OFFSET 0 -9.48199 0
									CHANNELS 6 Xposition Yposition Zposition Zrotation Xrotation Yrotation
									End Site
									{
										OFFSET 0 -3.67114 0
									}
								}
							}
						}
					}
				}
				JOINT rclavicle
				{
					OFFSET 0.0883157 12.5016 0.82912
					CHANNELS 6 Xposition Yposition Zposition Zrotation Xrotation Yrotation
					JOINT rhumerus
					{
						OFFSET -20.61 4.45 1.44
						CHANNELS 6 Xposition Yposition Zposition Zrotation Xrotation Yrotation
						JOINT rradius
						{
							OFFSET 0 -29.5102 0
							CHANNELS 6 Xposition Yposition Zposition Zrotation Xrotation Yrotation
							JOINT rwrist
							{
								OFFSET 0 -19.2342 0
								CHANNELS 6 Xposition Yposition Zposition Zrotation Xrotation Yrotation
								JOINT rhand
								{
									OFFSET 0 -9.61712 0
									CHANNELS 6 Xposition Yposition Zposition Zrotation Xrotation Yrotation
									JOINT rfingers
									{
										OFFSET 0 -3.29215 0
										CHANNELS 6 Xposition Yposition Zposition Zrotation Xrotation Yrotation
										End Site
										{
											OFFSET 0 -2.557 0
										}
									}
								}
								JOINT rthumb
								{
									OFFSET 0 -9.61712 0
									CHANNELS 6 Xposition Yposition Zposition Zrotation Xrotation Yrotation
									End Site
									{
										OFFSET 0 -3.671 0
									}
								}
							}
						}
					}
				}
			}
		}
	}
	JOINT rfemur
	{
		OFFSET -8.46272 -9.62775 4.76248
		CHANNELS 6 Xposition Yposition Zposition Zrotation Xrotation Yrotation
		JOINT rtibia
		{
			OFFSET 1.00552e-005 -38.0331 0
			CHANNELS 6 Xposition Yposition Zposition Zrotation Xrotation Yrotation
			JOINT rfoot
			{
				OFFSET 1.14428e-005 -43.2815 0
				CHANNELS 6 Xposition Yposition Zposition Zrotation Xrotation Yrotation
				JOINT rtoes
				{
					OFFSET 0 -14.1868 -3.08763
					CHANNELS 6 Xposition Yposition Zposition Zrotation Xrotation Yrotation
					End Site
					{
						OFFSET 0 -7.27332 0
					}
				}
			}
		}
	}
	JOINT lfemur
	{
		OFFSET 9.10607 -9.62778 4.76249
		CHANNELS 6 Xposition Yposition Zposition Zrotation Xrotation Yrotation
		JOINT ltibia
		{
			OFFSET -1.01399e-005 -38.3535 0
			CHANNELS 6 Xposition Yposition Zposition Zrotation Xrotation Yrotation
			JOINT lfoot
			{
				OFFSET -1.12937e-005 -42.7176 0
				CHANNELS 6 Xposition Yposition Zposition Zrotation Xrotation Yrotation
				JOINT ltoes
				{
					OFFSET 0 -13.9965 -2.83857
					CHANNELS 6 Xposition Yposition Zposition Zrotation Xrotation Yrotation
					End Site
					{
						OFFSET 0 -7.16348 0
					}
				}
			}
		}
	}
}
MOTION
Frames: 9
Frame Time: 0.00833333
4.70258	77.0777	172.439	4.82786	6.52722	-8.63812	0 0 0 2.75287	31.7542	-3.56997	-0.214371 12.3768 -1.12219 -2.61862	19.7021	-4.95287	-0.00137213 12.3873 0.296195 -3.69121	4.79953	-2.37121	0.0883157 12.5016 0.82912 2.86185	4.88691	1.26175	-1 10.1794 0.943522 2.7519	-20.7537	2.48745	0.667525 10.2797 -1.57149 0.0251901	-7.14628	0.647078	0.0883157 12.5016 0.82912 -15	0	-0	20.61 4.45006 1.43784 93.2017	-72.0371	-142.944	0 -30.3438 0 -0	81.7618	-0	0 -18.964 0 1.12126e-015	3.11423e-015	-66.8758	0 -9.48199 0 1.22245	4.37968	-2.58917e-014	0 -3.17138 0 -0	7.12502	-0	0 -9.48199 0 25	15	-1.36605e-015	0.0883157 12.5016 0.82912 15	0	-0	-20.61 4.45 1.44 -30.162	-10.6653	-157.345	0 -29.5102 0 180	71.0198	-180	0 -19.2342 0 9.92901e-016	-3.59832e-015	120.852	0 -9.61712 0 1.22	4.38	-0	0 -3.29215 0 -0	7.12502	-0	0 -9.61712 0 25	15	-7.97034e-015	-8.46272 -9.62775 4.76248 12.7145	-67.5127	9.52045	1.00552e-005 -38.0331 0 -0	24.8367	-0	1.14428e-005 -43.2815 0 -48.7726	-77.6059	-49.4407	0 -14.1868 -3.08763 -0	-43.3722	-0	9.10607 -9.62778 4.76249 1.18075	-44.2738	26.7871	-1.01399e-005 -38.3535 0 -180	87.1836	180	-1.12937e-005 -42.7176 0 -159.768	-81.3132	-159.552	0 -13.9965 -2.83857 -0	-21.8009	-0
4.625	77.4057	173.195	4.91949	6.94998	-8.35874	0 0 0 2.80324	31.203	-3.62325	-0.214371 12.3768 -1.12219 -2.53592	19.5301	-4.99132	-0.00137213 12.3873 0.296195 -3.65322	4.84227	-2.38315	0.0883157 12.5016 0.82912 2.86363	4.90211	1.24483	-1 10.1794 0.943522 2.75689	-20.5979	2.46263	0.667525 10.2797 -1.57149 0.0313919	-7.09834	0.639811	0.0883157 12.5016 0.82912 -15	0	-0	20.61 4.45006 1.43784 88.6451	-72.3234	-147.604	0 -30.3438 0 -0	82.4561	-0	0 -18.964 0 1.15379e-015	3.03693e-015	-67.4818	0 -9.48199 0 1.22245	4.37968	-2.58917e-014	0 -3.17138 0 -0	7.12502	-0	0 -9.48199 0 25	15	-1.36605e-015	0.0883157 12.5016 0.82912 15	0	-0	-20.61 4.45 1.44 -29.7681	-9.2248	-157.186	0 -29.5102 0 180	71.9887	-180	0 -19.2342 0 1.03379e-015	-3.66591e-015	121.497	0 -9.61712 0 1.22	4.38	-0	0 -3.29215 0 -0	7.12502	-0	0 -9.61712 0 25	15	-7.97034e-015	-8.46272 -9.62775 4.76248 12.1181	-67.2598	8.99695	1.00552e-005 -38.0331 0 -0	24.598	-0	1.14428e-005 -43.2815 0 -48.8184	-77.3004	-49.5199	0 -14.1868 -3.08763 -0	-42.5959	-0	9.10607 -9.62778 4.76249 1.05989	-43.7032	26.7919	-1.01399e-005 -38.3535 0 -180	87.8634	180	-1.12937e-005 -42.7176 0 -156.51	-81.2007	-156.261	0 -13.9965 -2.83857 -0	-21.6942	-0
4.54864	77.7511	173.967	4.9987	7.38513	-8.06599	0 0 0 2.87311	30.6476	-3.68821	-0.214371 12.3768 -1.12219 -2.44486	19.3555	-5.04142	-0.00137213 12.3873 0.296195 -3.61808	4.88935	-2.39943	0.0883157 12.5016 0.82912 2.86558	4.92084	1.22615	-1 10.1794 0.943522 2.76333	-20.447	2.43596	0.667525 10.2797 -1.57149 0.0379491	-7.0527	0.631213	0.0883157 12.5016 0.82912 -15	0	-0	20.61 4.45006 1.43784 83.8443	-72.4953	-152.533	0 -30.3438 0 -0	83.1252	-0	0 -18.964 0 1.18733e-015	2.95475e-015	-68.1231	0 -9.48199 0 1.22245	4.37968	-2.58917e-014	0 -3.17138 0 -0	7.12502	-0	0 -9.48199 0 25	15	-1.36605e-015	0.0883157 12.5016 0.82912 15	0	-0	-20.61 4.45 1.44 -29.3579	-7.81744	-157.088	0 -29.5102 0 180	73.06	-180	0 -19.2342 0 1.07798e-015	-3.73707e-015	122.181	0 -9.61712 0 1.22	4.38	-0	0 -3.29215 0 -0	7.12502	-0	0 -9.61712 0 25	15	-7.97034e-015	-8.46272 -9.62775 4.76248 11.5274	-66.9995	8.50553	1.00552e-005 -38.0331 0 -0	24.3834	-0	1.14428e-005 -43.2815 0 -48.9524	-77.0003	-49.6872	0 -14.1868 -3.08763 -0	-41.8597	-0	9.10607 -9.62778 4.76249 0.918479	-43.113	26.7541	-1.01399e-005 -38.3535 0 -180	88.5971	180	-1.12937e-005 -42.7176 0 -153.32	-81.0689	-153.038	0 -13.9965 -2.83857 -0	-21.5747	-0
4.47474	78.114	174.759	5.06478	7.83094	-7.75962	0 0 0 2.96289	30.0886	-3.76496	-0.214371 12.3768 -1.12219 -2.34631	19.1791	-5.10363	-0.00137213 12.3873 0.296195 -3.58617	4.93977	-2.42027	0.0883157 12.5016 0.82912 2.86764	4.94446	1.20624	-1 10.1794 0.943522 2.7719	-20.3032	2.40835	0.667525 10.2797 -1.57149 0.0450773	-7.01033	0.621656	0.0883157 12.5016 0.82912 -15	0	-0	20.61 4.45006 1.43784 78.8559	-72.5384	-157.673	0 -30.3438 0 -0	83.7646	-0	0 -18.964 0 1.22163e-015	2.86784e-015	-68.7982	0 -9.48199 0 1.22245	4.37968	-2.58917e-014	0 -3.17138 0 -0	7.12502	-0	0 -9.48199 0 25	15	-1.36605e-015	0.0883157 12.5016 0.82912 15	0	-0	-20.61 4.45 1.44 -28.9309	-6.44781	-157.055	0 -29.5102 0 180	74.2282	-180	0 -19.2342 0 1.12534e-015	-3.8113e-015	122.9	0 -9.61712 0 1.22	4.38	-0	0 -3.29215 0 -0	7.12502	-0	0 -9.61712 0 25	15	-7.97034e-015	-8.46272 -9.62775 4.76248 10.9439	-66.7282	8.04944	1.00552e-005 -38.0331 0 -0	24.1892	-0	1.14428e-005 -43.2815 0 -49.1511	-76.7076	-49.9188	0 -14.1868 -3.08763 -0	-41.1888	-0	9.10607 -9.62778 4.76249 0.757346	-42.5027	26.672	-1.01399e-005 -38.3535 0 -180	89.3833	180	-1.12937e-005 -42.7176 0 -150.21	-80.9187	-149.897	0 -13.9965 -2.83857 -0	-21.4481	-0
4.40368	78.4928	175.57	5.11695	8.28601	-7.43992	0 0 0 3.07281	29.5273	-3.85344	-0.214371 12.3768 -1.12219 -2.24114	19.0011	-5.1782	-0.00137213 12.3873 0.296195 -3.55748	4.99161	-2.44584	0.0883157 12.5016 0.82912 2.87095	4.97365	1.18593	-1 10.1794 0.943522 2.78283	-20.1674	2.3809	0.667525 10.2797 -1.57149 0.0529105	-6.97166	0.61172	0.0883157 12.5016 0.82912 -15	0	-0	20.61 4.45006 1.43784 73.7504	-72.4399	-162.951	0 -30.3438 0 -0	84.3708	-0	0 -18.964 0 1.25642e-015	2.77648e-015	-69.5046	0 -9.48199 0 1.22245	4.37968	-2.58917e-014	0 -3.17138 0 -0	7.12502	-0	0 -9.48199 0 25	15	-1.36605e-015	0.0883157 12.5016 0.82912 15	0	-0	-20.61 4.45 1.44 -28.4877	-5.11941	-157.088	0 -29.5102 0 180	75.4861	-180	0 -19.2342 0 1.17594e-015	-3.88839e-015	123.653	0 -9.61712 0 1.22	4.38	-0	0 -3.29215 0 -0	7.12502	-0	0 -9.61712 0 25	15	-7.97034e-015	-8.46272 -9.62775 4.76248 10.3698	-66.4444	7.62949	1.00552e-005 -38.0331 0 -0	24.0124	-0	1.14428e-005 -43.2815 0 -49.3775	-76.4246	-50.1775	0 -14.1868 -3.08763 -0	-40.606	-0	9.10607 -9.62778 4.76249 0.577881	-41.8726	26.5445	-1.01399e-005 -38.3535 0 -0	89.7789	-0	-1.12937e-005 -42.7176 0 -147.193	-80.751	-146.851	0 -13.9965 -2.83857 -0	-21.3208	-0
4.33459	78.8845	176.402	5.1543	8.74937	-7.10805	0 0 0 3.20283	28.9651	-3.95335	-0.214371 12.3768 -1.12219 -2.1302	18.8214	-5.26502	-0.00137213 12.3873 0.296195 -3.53171	5.0423	-2.4762	0.0883157 12.5016 0.82912 2.8738	5.00833	1.16625	-1 10.1794 0.943522 2.79583	-20.0392	2.35481	0.667525 10.2797 -1.57149 0.0614786	-6.93651	0.602145	0.0883157 12.5016 0.82912 -15	0	-0	20.61 4.45006 1.43784 68.6101	-72.189	-168.283	0 -30.3438 0 -0	84.9412	-0	0 -18.964 0 1.29142e-015	2.681e-015	-70.2393	0 -9.48199 0 1.22245	4.37968	-2.58917e-014	0 -3.17138 0 -0	7.12502	-0	0 -9.48199 0 25	15	-1.36605e-015	0.0883157 12.5016 0.82912 15	0	-0	-20.61 4.45 1.44 -28.0298	-3.83488	-157.189	0 -29.5102 0 180	76.8249	-180	0 -19.2342 0 1.22962e-015	-3.96785e-015	124.436	0 -9.61712 0 1.22	4.38	-0	0 -3.29215 0 -0	7.12502	-0	0 -9.61712 0 25	15	-7.97034e-015	-8.46272 -9.62775 4.76248 9.80717	-66.1489	7.24323	1.00552e-005 -38.0331 0 -0	23.8502	-0	1.14428e-005 -43.2815 0 -49.5808	-76.1535	-50.4123	0 -14.1868 -3.08763 -0	-40.1296	-0	9.10607 -9.62778 4.76249 0.382123	-41.2231	26.3711	-1.01399e-005 -38.3535 0 -0	88.8905	-0	-1.12937e-005 -42.7176 0 -144.284	-80.5673	-143.913	0 -13.9965 -2.83857 -0	-21.2005	-0
4.26905	79.2864	177.256	5.17591	9.22041	-6.76623	0 0 0 3.35246	28.4035	-4.06397	-0.214371 12.3768 -1.12219 -2.01432	18.6397	-5.36352	-0.00137213 12.3873 0.296195 -3.50845	5.08909	-2.51122	0.0883157 12.5016 0.82912 2.87142	5.04765	1.14835	-1 10.1794 0.943522 2.81012	-19.9169	2.33129	0.667525 10.2797 -1.57149 0.070686	-6.90419	0.593767	0.0883157 12.5016 0.82912 -15	0	-0	20.61 4.45006 1.43784 63.5226	-71.778	-173.574	0 -30.3438 0 -0	85.4744	-0	0 -18.964 0 1.32625e-015	2.58198e-015	-70.9978	0 -9.48199 0 1.22245	4.37968	-2.58917e-014	0 -3.17138 0 -0	7.12502	-0	0 -9.48199 0 25	15	-1.36605e-015	0.0883157 12.5016 0.82912 15	0	-0	-20.61 4.45 1.44 -27.5599	-2.5962	-157.353	0 -29.5102 0 180	78.2353	-180	0 -19.2342 0 1.28601e-015	-4.04886e-015	125.242	0 -9.61712 0 1.22	4.38	-0	0 -3.29215 0 -0	7.12502	-0	0 -9.61712 0 25	15	-7.97034e-015	-8.46272 -9.62775 4.76248 9.25864	-65.8449	6.88453	1.00552e-005 -38.0331 0 -0	23.7008	-0	1.14428e-005 -43.2815 0 -49.6996	-75.8965	-50.5619	0 -14.1868 -3.08763 -0	-39.7703	-0	9.10607 -9.62778 4.76249 0.172772	-40.555	26.1523	-1.01399e-005 -38.3535 0 -0	87.9521	-0	-1.12937e-005 -42.7176 0 -141.494	-80.369	-141.097	0 -13.9965 -2.83857 -0	-21.0952	-0
4.20698	79.6956	178.133	5.18093	9.69886	-6.41806	0 0 0 3.52064	27.844	-4.18408	-0.214371 12.3768 -1.12219 -1.89439	18.4554	-5.47259	-0.00137213 12.3873 0.296195 -3.48733	5.12935	-2.55055	0.0883157 12.5016 0.82912 2.86334	5.09012	1.13346	-1 10.1794 0.943522 2.82441	-19.7979	2.31149	0.667525 10.2797 -1.57149 0.0802982	-6.87361	0.58746	0.0883157 12.5016 0.82912 -15	0	-0	20.61 4.45006 1.43784 58.5739	-71.2032	-178.734	0 -30.3438 0 -0	85.9694	-0	0 -18.964 0 1.3606e-015	2.48e-015	-71.7753	0 -9.48199 0 1.22245	4.37968	-2.58917e-014	0 -3.17138 0 -0	7.12502	-0	0 -9.48199 0 25	15	-1.36605e-015	0.0883157 12.5016 0.82912 15	0	-0	-20.61 4.45 1.44 -27.0813	-1.40501	-157.578	0 -29.5102 0 180	79.7071	-180	0 -19.2342 0 1.3449e-015	-4.13095e-015	126.067	0 -9.61712 0 1.22	4.38	-0	0 -3.29215 0 -0	7.12502	-0	0 -9.61712 0 25	15	-7.97034e-015	-8.46272 -9.62775 4.76248 8.72696	-65.5384	6.54372	1.00552e-005 -38.0331 0 -0	23.5637	-0	1.14428e-005 -43.2815 0 -49.6664	-75.655	-50.5589	0 -14.1868 -3.08763 -0	-39.529	-0	9.10607 -9.62778 4.76249 -0.0469752	-39.869	25.8899	-1.01399e-005 -38.3535 0 -0	86.964	-0	-1.12937e-005 -42.7176 0 -138.837	-80.1581	-138.416	0 -13.9965 -2.83857 -0	-21.014	-0
4.14636	80.1105	179.033	5.16877	10.1846	-6.06856	0 0 0 3.70564	27.2879	-4.31189	-0.214371 12.3768 -1.12219 -1.77144	18.2677	-5.59049	-0.00137213 12.3873 0.296195 -3.46814	5.16088	-2.59355	0.0883157 12.5016 0.82912 2.8483	5.1338	1.12277	-1 10.1794 0.943522 2.83705	-19.6793	2.29646	0.667525 10.2797 -1.57149 0.0899379	-6.84344	0.584067	0.0883157 12.5016 0.82912 -15	0	-0	20.61 4.45006 1.43784 53.8404	-70.4651	176.321	0 -30.3438 0 -0	86.4263	-0	0 -18.964 0 1.39412e-015	2.37578e-015	-72.5663	0 -9.48199 0 1.22245	4.37968	-2.58917e-014	0 -3.17138 0 -0	7.12502	-0	0 -9.48199 0 25	15	-1.36605e-015	0.0883157 12.5016 0.82912 15	0	-0	-20.61 4.45 1.44 -26.5984	-0.2627	-157.858	0 -29.5102 0 180	81.2299	-180	0 -19.2342 0 1.4057e-015	-4.21317e-015	126.902	0 -9.61712 0 1.22	4.38	-0	0 -3.29215 0 -0	7.12502	-0	0 -9.61712 0 25	15	-7.97034e-015	-8.46272 -9.62775 4.76248 8.21512	-65.2369	6.20811	1.00552e-005 -38.0331 0 -0	23.44	-0	1.14428e-005 -43.2815 0 -49.4138	-75.4296	-50.3362	0 -14.1868 -3.08763 -0	-39.3955	-0	9.10607 -9.62778 4.76249 -0.273696	-39.1661	25.5864	-1.01399e-005 -38.3535 0 -0	85.9259	-0	-1.12937e-005 -42.7176 0 -136.325	-79.9368	-135.881	0 -13.9965 -2.83857 -0	-20.9654	-0
